<svg xmlns="http://www.w3.org/2000/svg" width="196.122" height="193.385" viewBox="0 0 196.122 193.385">
  <g id="Group_2833" data-name="Group 2833" transform="translate(0)">
    <g id="Group_2825" data-name="Group 2825">
      <g id="Group_2804" data-name="Group 2804" transform="translate(66.773 67.267)">
        <path id="Path_835" data-name="Path 835" d="M1170.16,279.578l33.619-38.408,32.78,36.754-34.337,36.129Z" transform="translate(-1170.16 -241.17)" fill="#a82682" fill-rule="evenodd"/>
      </g>
      <g id="Group_2805" data-name="Group 2805" transform="translate(10.353 9.716)">
        <path id="Path_836" data-name="Path 836" d="M879.179,37.01c-.942-10.147-1.29-22.471.616-31.183,5.139-23.495,20.644-38.661,39.438-49.8,28.419-16.84,67.8-17.542,99.269,3.782,0,0,23.251,13.2,32.429,43.473,2.861,9.439,2.573,20.419,2.072,33.33l-34.7-.725s1.448-32.437-26.337-46.281C957.454-28.037,911.117-7.539,915,36.12Z" transform="translate(-878.182 56.655)" fill="#fefefe" fill-rule="evenodd"/>
        <path id="Path_837" data-name="Path 837" d="M877.975,36.246l-.021-.224c-.692-7.451-1.531-21.42.62-31.257a67,67,0,0,1,14.65-29.637c6.344-7.5,14.49-14.146,24.9-20.315a88.546,88.546,0,0,1,23.137-9.538A94.492,94.492,0,0,1,1017.652-41.4a66.36,66.36,0,0,1,12.809,10.414,81.227,81.227,0,0,1,19.715,33.189c2.78,9.169,2.616,19.63,2.082,33.409l-.009.236-35.182-.735.011-.246a57.762,57.762,0,0,0-2.743-17.881c-2.826-8.928-9.19-21.063-23.461-28.173-18.2-9.308-40.475-8.233-56.739,2.737C919.684,1.3,912.623,16.761,914.252,35.089l.023.256Zm86.5-93.516a90.315,90.315,0,0,0-46.1,12.5C896.362-31.733,883.5-15.495,879.044,4.869c-2.116,9.675-1.317,23.409-.632,30.885l35.338-.878A48.906,48.906,0,0,1,918.2,9.014,45.857,45.857,0,0,1,933.866-8.848C950.273-19.914,972.735-21,991.092-11.615a44.787,44.787,0,0,1,15.919,13.141,50.575,50.575,0,0,1,7.789,15.333,59.1,59.1,0,0,1,2.766,17.786l34.22.715c.525-13.614.671-23.969-2.071-33.014a80.747,80.747,0,0,0-19.585-32.978A65.934,65.934,0,0,0,1017.4-40.989,94.458,94.458,0,0,0,964.472-57.27Z" transform="translate(-877.196 57.664)" fill="#e61c7e"/>
      </g>
      <g id="Group_2806" data-name="Group 2806">
        <path id="Path_838" data-name="Path 838" d="M828.57-4.572h-4.741c-10.86-142.909,209.75-133.586,195.028,1.451h-4.872c4.118-34.9-9.641-62.712-31.667-79.858-37.132-28.907-95.661-28.052-128.821,5C837.017-61.553,825.809-38.664,828.57-4.572Z" transform="translate(-823.44 108.115)" fill="#e61c7e" fill-rule="evenodd"/>
      </g>
      <g id="Group_2807" data-name="Group 2807" transform="translate(0.551 108.658)">
        <path id="Path_839" data-name="Path 839" d="M826.3,456.1h61.335l36.7,39.463L961.841,456.1h56.983V498.29H826.3Z" transform="translate(-826.301 -456.098)" fill="#e61c7e" fill-rule="evenodd"/>
      </g>
      <g id="Group_2808" data-name="Group 2808" transform="translate(52.533 56.299)">
        <path id="Path_840" data-name="Path 840" d="M1096.644,234.348h4.214c-9.806-57.02,84.145-64.268,80.724-.922h4.609C1190.724,167.088,1088.843,168.247,1096.644,234.348Z" transform="translate(-1096.218 -184.22)" fill="#e61c7e" fill-rule="evenodd"/>
      </g>
      <g id="Group_2809" data-name="Group 2809" transform="translate(28.697 18.191)">
        <path id="Path_841" data-name="Path 841" d="M989.983,36.918,972.449,20.31l8.54-9.039A17.88,17.88,0,0,1,985.05,7.84a5.624,5.624,0,0,1,3.624-.634,6.69,6.69,0,0,1,3.617,1.885,6.714,6.714,0,0,1,1.928,3.01,6.636,6.636,0,0,1,.1,3.348,9.115,9.115,0,0,1-1.106,2.561,7.424,7.424,0,0,1,1.977-.8,7.9,7.9,0,0,1,1.741.008,9.331,9.331,0,0,1,1.8.276l7.556,2.161-5.791,6.13-8.084-2.166a5.657,5.657,0,0,0-2.278-.3,3.161,3.161,0,0,0-1.663.95l-.451.478,7.1,6.726-5.142,5.443Zm-5.265-15.3,2.166-2.292A11.486,11.486,0,0,0,988,17.658a1.932,1.932,0,0,0,.279-1.4,2.249,2.249,0,0,0-.7-1.31,2.218,2.218,0,0,0-1.815-.7,4.459,4.459,0,0,0-2.372,1.594l-2.254,2.387,3.576,3.386Zm17.925-12.23a13.654,13.654,0,0,0,4.624,5.57,10.208,10.208,0,0,0,5.718,1.758,15.479,15.479,0,0,0,6.63-1.85,13.609,13.609,0,0,0,5.341-4.344,10.217,10.217,0,0,0,1.811-5.614,14.866,14.866,0,0,0-1.815-6.849q-2.594-5.221-6.954-6.671t-9.754,1.245q-5.266,2.623-6.748,7.043t1.149,9.713Zm6.678-3.307q-1.641-3.3-1.125-5.346a4.555,4.555,0,0,1,2.539-3.049,4.7,4.7,0,0,1,4.046-.255q1.928.793,3.447,3.843c1.2,2.423,1.642,4.291,1.318,5.621a4.619,4.619,0,0,1-2.64,3.061,4.627,4.627,0,0,1-4.031.223q-1.924-.823-3.554-4.1Zm21.373-19.735,8.281.063,4.821,8.171,4.922-8.1,8.236.063L1047.475.52l-.077,10.12-7.484-.057.077-10.12-9.3-14.118Zm40.587,26.889-.258,4.154,7.317,2.732L1078.3-5.688l-7.649-2.855L1053.7,10.921l7.132,2.663,2.528-3.307,7.917,2.957Zm.347-5.455-4.949-1.848,5.511-7.212-.562,9.06Zm26-1.383,5.045,5.49-13.4,12.34,7.9,8.594-4.366,4.022-12.942-14.084Z" transform="translate(-972.449 13.655)" fill="#393185" fill-rule="evenodd"/>
      </g>
      <g id="Group_2812" data-name="Group 2812" transform="translate(0.551 155.324)">
        <g id="Group_2810" data-name="Group 2810">
          <rect id="Rectangle_1635" data-name="Rectangle 1635" width="192.764" height="26.787" fill="#a82682"/>
        </g>
        <g id="Group_2811" data-name="Group 2811" transform="translate(34.049 6.396)">
          <path id="Path_842" data-name="Path 842" d="M1006,737.357h1.221a3.2,3.2,0,0,0,.766-.186.775.775,0,0,0,.469-.426,1.658,1.658,0,0,0,.182-.788,1.555,1.555,0,0,0-.287-1.009,1.336,1.336,0,0,0-1.079-.353H1006v2.761Zm62.224,0h1.221a3.211,3.211,0,0,0,.766-.186.776.776,0,0,0,.468-.426,1.654,1.654,0,0,0,.183-.788,1.555,1.555,0,0,0-.287-1.009,1.337,1.337,0,0,0-1.08-.353h-1.27v2.761Zm28.459,0h1.22a3.2,3.2,0,0,0,.766-.186.776.776,0,0,0,.468-.426,1.66,1.66,0,0,0,.183-.788,1.559,1.559,0,0,0-.287-1.009,1.337,1.337,0,0,0-1.08-.353h-1.271v2.761Zm-93.581,8.038V731.853h4.813a4.919,4.919,0,0,1,2.046.334,2.463,2.463,0,0,1,1.142,1.232,5.045,5.045,0,0,1,.433,2.2,5.153,5.153,0,0,1-.333,1.945,3.405,3.405,0,0,1-.914,1.33,2.948,2.948,0,0,1-1.014.536,2.583,2.583,0,0,1,.751.5,4.173,4.173,0,0,1,.461.712,5.828,5.828,0,0,1,.4.841l1.4,3.912h-3.264l-1.543-4.129a3.354,3.354,0,0,0-.522-1.044.982.982,0,0,0-.709-.312H1006v5.485Zm9.527-6.762a8.983,8.983,0,0,1,1.275-5.16,4.078,4.078,0,0,1,3.554-1.847,4.126,4.126,0,0,1,3.6,1.812,8.814,8.814,0,0,1,1.262,5.085,11.552,11.552,0,0,1-.55,3.889,5.289,5.289,0,0,1-1.6,2.365,4,4,0,0,1-2.6.845,4.45,4.45,0,0,1-2.618-.729,5.08,5.08,0,0,1-1.68-2.311,10.516,10.516,0,0,1-.644-3.95Zm2.886.01a6.115,6.115,0,0,0,.526,2.944,1.612,1.612,0,0,0,1.437.9,1.594,1.594,0,0,0,1.443-.876,6.789,6.789,0,0,0,.511-3.149,5.575,5.575,0,0,0-.533-2.79,1.625,1.625,0,0,0-1.447-.883,1.591,1.591,0,0,0-1.405.9,6.108,6.108,0,0,0-.531,2.963Zm6.53-6.79,3.643,7.871v5.671h2.9v-5.671l3.629-7.871h-3.19l-1.883,4.558-1.891-4.558Zm15.618,11.31h-3.273l-.47,2.232h-2.948l3.518-13.542h3.162l3.5,13.542h-3.024l-.468-2.232Zm-.612-2.931-1.021-4.867L1035,740.231Zm5.016-8.379h2.885v10.213h4.518v3.329h-7.4V731.853Zm13.1,0h4.294a3.77,3.77,0,0,1,2.05.5,3.869,3.869,0,0,1,1.292,1.431,7.274,7.274,0,0,1,.738,2.172,14.211,14.211,0,0,1,.231,2.623,12.833,12.833,0,0,1-.341,3.366,6.059,6.059,0,0,1-.947,2.005,3.06,3.06,0,0,1-1.3,1.078,4.816,4.816,0,0,1-1.721.369h-4.294V731.853Zm2.885,3.064v7.395h.709a2.208,2.208,0,0,0,1.293-.29,1.959,1.959,0,0,0,.6-1.015,9.009,9.009,0,0,0,.218-2.352,6.166,6.166,0,0,0-.485-2.944,1.741,1.741,0,0,0-1.613-.794Zm7.271,10.478V731.853h4.813a4.917,4.917,0,0,1,2.045.334,2.47,2.47,0,0,1,1.143,1.232,5.053,5.053,0,0,1,.433,2.2,5.133,5.133,0,0,1-.333,1.945,3.4,3.4,0,0,1-.914,1.33,2.944,2.944,0,0,1-1.014.536,2.582,2.582,0,0,1,.751.5,4.184,4.184,0,0,1,.461.712,5.749,5.749,0,0,1,.4.841l1.4,3.912h-3.265l-1.542-4.129a3.356,3.356,0,0,0-.522-1.044.981.981,0,0,0-.709-.312h-.254v5.485Zm8.615-13.542,3.642,7.871v5.671h2.9v-5.671l3.63-7.871h-3.19l-1.882,4.558-1.891-4.558Zm11.109,0h7.142v2.913h-4.243v2.364h3.63v2.743h-3.63v5.523h-2.9V731.853Zm8.735,13.542V731.853h4.813a4.915,4.915,0,0,1,2.046.334,2.467,2.467,0,0,1,1.143,1.232,5.054,5.054,0,0,1,.433,2.2,5.14,5.14,0,0,1-.333,1.945,3.406,3.406,0,0,1-.914,1.33,2.947,2.947,0,0,1-1.014.536,2.574,2.574,0,0,1,.751.5,4.12,4.12,0,0,1,.461.712,5.675,5.675,0,0,1,.4.841l1.4,3.912h-3.264l-1.543-4.129a3.363,3.363,0,0,0-.523-1.044.981.981,0,0,0-.709-.312h-.255v5.485Zm15.977-13.542h2.886v8.066a9.58,9.58,0,0,1-.259,2.263,5.531,5.531,0,0,1-.81,1.866,3.465,3.465,0,0,1-1.155,1.123,4.241,4.241,0,0,1-2.021.451,8.986,8.986,0,0,1-1.488-.139,3.033,3.033,0,0,1-1.349-.549,3.97,3.97,0,0,1-.99-1.166,5.024,5.024,0,0,1-.616-1.56,11.409,11.409,0,0,1-.269-2.288v-8.066h2.886v8.259a3.044,3.044,0,0,0,.422,1.727,1.415,1.415,0,0,0,2.341.01,3.038,3.038,0,0,0,.423-1.737v-8.259Zm4.909,0h2.9v13.542h-2.9V731.853Zm4.31,0h8.787V735.2h-2.95v10.194h-2.886V735.2h-2.951v-3.348Z" transform="translate(-1003.101 -731.626)" fill="#fefefe" fill-rule="evenodd"/>
        </g>
      </g>
      <g id="Group_2824" data-name="Group 2824" transform="translate(87.036 83.093)">
        <g id="Group_2813" data-name="Group 2813" transform="translate(1.435 14.041)">
          <path id="Path_843" data-name="Path 843" d="M1282.828,396.257h18.7s4.873,3.956,2.107,11.6c0,0-1.975,5.669-9.481,6.065l10.6,8.57h-3.841l-17.818-14.306Z" transform="translate(-1282.828 -396.257)" fill="#fefefe" fill-rule="evenodd"/>
        </g>
        <g id="Group_2814" data-name="Group 2814" transform="translate(1.725 26.937)">
          <path id="Path_844" data-name="Path 844" d="M1284.335,466.671l.011-3.453,16.78,13.343H1296.9Z" transform="translate(-1284.335 -463.218)" fill="#fefefe" fill-rule="evenodd"/>
        </g>
        <g id="Group_2815" data-name="Group 2815" transform="translate(0.313 7.648)">
          <path id="Path_845" data-name="Path 845" d="M1277,367.278h24.824l.395-4.154s-3.951,5.011-7.111-.066c0,0-2.9,4.682-5.6.132,0,0-2.766,4.483-5.465.264,0,0-4.016,4.417-7.045-.066Z" transform="translate(-1277.003 -363.059)" fill="#fefefe" fill-rule="evenodd"/>
        </g>
        <g id="Group_2816" data-name="Group 2816" transform="translate(0 3.346)">
          <path id="Path_846" data-name="Path 846" d="M1276.712,340.72a1.335,1.335,0,1,1-1.333,1.335A1.334,1.334,0,0,1,1276.712,340.72Z" transform="translate(-1275.379 -340.72)" fill="#fefefe" fill-rule="evenodd"/>
        </g>
        <g id="Group_2817" data-name="Group 2817" transform="translate(5.447 1.812)">
          <path id="Path_847" data-name="Path 847" d="M1305.147,332.756a1.484,1.484,0,1,1-1.482,1.484A1.483,1.483,0,0,1,1305.147,332.756Z" transform="translate(-1303.665 -332.756)" fill="#fefefe" fill-rule="evenodd"/>
        </g>
        <g id="Group_2818" data-name="Group 2818" transform="translate(10.997)">
          <path id="Path_848" data-name="Path 848" d="M1334.49,323.347a2.011,2.011,0,1,1-2.008,2.011A2.009,2.009,0,0,1,1334.49,323.347Z" transform="translate(-1332.482 -323.347)" fill="#fefefe" fill-rule="evenodd"/>
        </g>
        <g id="Group_2819" data-name="Group 2819" transform="translate(23.179 3.346)">
          <path id="Path_849" data-name="Path 849" d="M1397.071,340.72a1.335,1.335,0,1,0,1.333,1.335A1.333,1.333,0,0,0,1397.071,340.72Z" transform="translate(-1395.738 -340.72)" fill="#fefefe" fill-rule="evenodd"/>
        </g>
        <g id="Group_2820" data-name="Group 2820" transform="translate(17.433 1.812)">
          <path id="Path_850" data-name="Path 850" d="M1367.382,332.756a1.484,1.484,0,1,0,1.483,1.484A1.483,1.483,0,0,0,1367.382,332.756Z" transform="translate(-1365.9 -332.756)" fill="#fefefe" fill-rule="evenodd"/>
        </g>
        <g id="Group_2821" data-name="Group 2821" transform="translate(1.612 31.373)">
          <path id="Path_851" data-name="Path 851" d="M1283.749,489.705l.011-3.453,11.359,8.907H1290.8Z" transform="translate(-1283.749 -486.252)" fill="#fefefe" fill-rule="evenodd"/>
        </g>
        <g id="Group_2822" data-name="Group 2822" transform="translate(1.617 35.48)">
          <path id="Path_852" data-name="Path 852" d="M1283.774,511.032l.011-3.453,6.11,4.8h-4.381Z" transform="translate(-1283.774 -507.578)" fill="#fefefe" fill-rule="evenodd"/>
        </g>
        <g id="Group_2823" data-name="Group 2823" transform="translate(1.662 39.783)">
          <path id="Path_853" data-name="Path 853" d="M1284.009,530.418l0-.5.638.5Z" transform="translate(-1284.009 -529.92)" fill="#fefefe" fill-rule="evenodd"/>
        </g>
      </g>
    </g>
    <g id="Group_2828" data-name="Group 2828" transform="translate(166.452 13.944)">
      <g id="Group_2826" data-name="Group 2826" transform="translate(2.511 2.078)">
        <path id="Path_854" data-name="Path 854" d="M1700.786-17.673v-7.245h3.207a4.268,4.268,0,0,1,1.47.2,1.61,1.61,0,0,1,.8.688,2.058,2.058,0,0,1,.3,1.091,1.826,1.826,0,0,1-.5,1.3,2.519,2.519,0,0,1-1.538.672,2.465,2.465,0,0,1,.578.361,4.86,4.86,0,0,1,.791.965l1.251,1.973h-1.2L1705-19.181c-.278-.437-.509-.769-.689-1a2.184,2.184,0,0,0-.487-.484,1.474,1.474,0,0,0-.436-.192,3.021,3.021,0,0,0-.532-.033h-1.108v3.217Zm.96-4.047h2.055a3.044,3.044,0,0,0,1.024-.137,1.066,1.066,0,0,0,.56-.435,1.177,1.177,0,0,0,.192-.649,1.086,1.086,0,0,0-.371-.846,1.73,1.73,0,0,0-1.172-.331h-2.287Z" transform="translate(-1700.786 24.918)" fill="#e61c7e" fill-rule="evenodd"/>
      </g>
      <g id="Group_2827" data-name="Group 2827" transform="translate(0 0)">
        <path id="Path_855" data-name="Path 855" d="M1693.442-24.308a5.7,5.7,0,0,1-5.693-5.7,5.7,5.7,0,0,1,5.693-5.7,5.7,5.7,0,0,1,5.693,5.7A5.7,5.7,0,0,1,1693.442-24.308Zm0-11.3a5.606,5.606,0,0,0-5.6,5.6,5.606,5.606,0,0,0,5.6,5.6,5.606,5.606,0,0,0,5.6-5.6A5.607,5.607,0,0,0,1693.442-35.612Z" transform="translate(-1687.749 35.708)" fill="#e61c7e"/>
      </g>
    </g>
    <g id="Group_2832" data-name="Group 2832" transform="translate(0.43 186.306)">
      <g id="Group_2829" data-name="Group 2829" transform="translate(68.017)">
        <path id="Path_856" data-name="Path 856" d="M1178.854,864.027l1.344-.133a1.639,1.639,0,0,0,.489.991,1.476,1.476,0,0,0,1,.316,1.524,1.524,0,0,0,1-.281.839.839,0,0,0,.337-.658.63.63,0,0,0-.141-.414,1.115,1.115,0,0,0-.494-.294c-.161-.057-.526-.156-1.1-.3a3.709,3.709,0,0,1-1.548-.679,1.811,1.811,0,0,1-.332-2.358,1.847,1.847,0,0,1,.85-.693,3.374,3.374,0,0,1,1.339-.238,2.84,2.84,0,0,1,1.927.569,2.022,2.022,0,0,1,.679,1.52l-1.382.048a1.178,1.178,0,0,0-.376-.76,1.366,1.366,0,0,0-.866-.232,1.543,1.543,0,0,0-.932.248.5.5,0,0,0-.218.426.525.525,0,0,0,.205.415,3.554,3.554,0,0,0,1.263.46,6.617,6.617,0,0,1,1.482.491,1.919,1.919,0,0,1,.753.7,2.039,2.039,0,0,1,.271,1.088,2.013,2.013,0,0,1-.325,1.1,1.946,1.946,0,0,1-.921.762,3.853,3.853,0,0,1-1.485.249,2.95,2.95,0,0,1-1.987-.6,2.593,2.593,0,0,1-.828-1.74Zm6.67,2.214v-6.831h1.381v6.831Zm2.7,0v-6.831h1.338l2.808,4.578v-4.578h1.277v6.831h-1.38l-2.765-4.49v4.49Zm11.246-2.519,1.334.41a3.035,3.035,0,0,1-1.022,1.676,2.9,2.9,0,0,1-1.812.547,2.938,2.938,0,0,1-2.236-.93,3.568,3.568,0,0,1-.875-2.545,3.743,3.743,0,0,1,.88-2.651,3.013,3.013,0,0,1,2.314-.944,2.833,2.833,0,0,1,2.035.743,2.7,2.7,0,0,1,.7,1.261l-1.363.324a1.408,1.408,0,0,0-1.439-1.145,1.551,1.551,0,0,0-1.232.545,2.665,2.665,0,0,0-.474,1.765,2.865,2.865,0,0,0,.466,1.843,1.512,1.512,0,0,0,1.212.55,1.378,1.378,0,0,0,.947-.35,2.028,2.028,0,0,0,.568-1.1Zm2.517,2.519v-6.831h5.051v1.154h-3.669v1.517h3.412v1.155h-3.412v1.851h3.8v1.155Zm9.242-3.645v-1.307h1.305V862.6Zm0,3.645v-1.307h1.305v1.307Zm8.632,0h-1.306V861.3a4.484,4.484,0,0,1-1.687,1V861.1a3.72,3.72,0,0,0,1.11-.636,2.42,2.42,0,0,0,.823-1.091h1.059v6.87Zm2-1.587,1.268-.14a.922.922,0,0,0,.24.575.7.7,0,0,0,.511.188.833.833,0,0,0,.683-.375,3.234,3.234,0,0,0,.359-1.552,1.559,1.559,0,0,1-1.232.573,1.838,1.838,0,0,1-1.388-.622,2.269,2.269,0,0,1-.583-1.619,2.3,2.3,0,0,1,.616-1.675,2.229,2.229,0,0,1,3.273.169,4.179,4.179,0,0,1,.665,2.651,4.231,4.231,0,0,1-.691,2.707,2.229,2.229,0,0,1-1.8.831,1.891,1.891,0,0,1-1.29-.429,2.073,2.073,0,0,1-.63-1.281Zm2.944-2.866a1.49,1.49,0,0,0-.291-.981.851.851,0,0,0-.67-.348.748.748,0,0,0-.6.286,1.45,1.45,0,0,0-.24.935,1.5,1.5,0,0,0,.26.97.816.816,0,0,0,.65.308.8.8,0,0,0,.634-.3,1.3,1.3,0,0,0,.257-.873Zm7.627,2.7,1.306-.135a1.132,1.132,0,0,0,.33.7.9.9,0,0,0,.635.259.875.875,0,0,0,.694-.335,1.541,1.541,0,0,0,.284-1.011,1.39,1.39,0,0,0-.283-.951.935.935,0,0,0-.734-.316,1.341,1.341,0,0,0-1.013.5l-1.057-.153.667-3.549h3.459v1.221h-2.466l-.207,1.163a1.987,1.987,0,0,1,.895-.218,1.96,1.96,0,0,1,1.477.636,2.286,2.286,0,0,1,.607,1.651,2.489,2.489,0,0,1-.489,1.511,2.167,2.167,0,0,1-1.849.906,2.3,2.3,0,0,1-1.542-.509A2.1,2.1,0,0,1,1232.43,864.487Zm-5.376,0,1.305-.135a1.132,1.132,0,0,0,.33.7.9.9,0,0,0,.635.259.874.874,0,0,0,.694-.335,1.541,1.541,0,0,0,.284-1.011,1.389,1.389,0,0,0-.283-.951.935.935,0,0,0-.734-.316,1.341,1.341,0,0,0-1.013.5l-1.057-.153.667-3.549h3.459v1.221h-2.466l-.207,1.163a1.985,1.985,0,0,1,.895-.218,1.96,1.96,0,0,1,1.477.636,2.286,2.286,0,0,1,.607,1.651,2.489,2.489,0,0,1-.489,1.511,2.167,2.167,0,0,1-1.849.906,2.294,2.294,0,0,1-1.542-.509A2.094,2.094,0,0,1,1227.054,864.487Z" transform="translate(-1178.854 -859.285)" fill="#2b2a29" fill-rule="evenodd"/>
      </g>
      <g id="Group_2830" data-name="Group 2830" transform="translate(127.492 3.014)">
        <rect id="Rectangle_1636" data-name="Rectangle 1636" width="65.272" height="0.096" fill="#ae4a84"/>
      </g>
      <g id="Group_2831" data-name="Group 2831" transform="translate(0 3.014)">
        <rect id="Rectangle_1637" data-name="Rectangle 1637" width="66.72" height="0.096" fill="#ae4a84"/>
      </g>
    </g>
  </g>
</svg>
